<svg width="24" height="24" viewBox="0 0 24 24" fill="none" xmlns="http://www.w3.org/2000/svg">
<path d="M21 12.3196C21 6.82961 16.74 3.09961 12 3.09961C7.31 3.09961 3 6.74961 3 12.3796C2.4 12.7196 2 13.3596 2 14.0996V16.0996C2 17.1996 2.9 18.0996 4 18.0996H5V11.9996C5 8.12961 8.13 4.99961 12 4.99961C15.87 4.99961 19 8.12961 19 11.9996V19.0996H11V21.0996H19C20.1 21.0996 21 20.1996 21 19.0996V17.8796C21.59 17.5696 22 16.9596 22 16.2396V13.9396C22 13.2396 21.59 12.6296 21 12.3196Z" fill="#AEAFB4"/>
<path d="M8.99988 14.0996C9.55216 14.0996 9.99988 13.6519 9.99988 13.0996C9.99988 12.5473 9.55216 12.0996 8.99988 12.0996C8.44759 12.0996 7.99988 12.5473 7.99988 13.0996C7.99988 13.6519 8.44759 14.0996 8.99988 14.0996Z" fill="#AEAFB4"/>
<path d="M14.9998 14.0996C15.5521 14.0996 15.9998 13.6519 15.9998 13.0996C15.9998 12.5473 15.5521 12.0996 14.9998 12.0996C14.4475 12.0996 13.9998 12.5473 13.9998 13.0996C13.9998 13.6519 14.4475 14.0996 14.9998 14.0996Z" fill="#AEAFB4"/>
<path d="M17.9998 11.1296C17.5198 8.27961 15.0398 6.09961 12.0498 6.09961C9.01985 6.09961 5.75985 8.60961 6.01985 12.5496C8.48985 11.5396 10.3498 9.33961 10.8798 6.65961C12.1898 9.28961 14.8798 11.0996 17.9998 11.1296Z" fill="#AEAFB4"/>
</svg>
